<svg xmlns="http://www.w3.org/2000/svg">
    <symbol id="mark" viewBox="0 0 18 16">
        <path d="M15.42 0H1.84998C0.829976 0 0 0.768005 0 1.714V14.286C0 15.233 0.829976 16 1.84998 16H15.42C16.44 16 17.27 15.233 17.27 14.286V1.714C17.27 0.768005 16.44 0 15.42 0ZM15.42 14.286H1.84998V1.714H15.42V14.286ZM14.04 5.653L7.39001 11.767C7.20001 11.934 6.90998 11.933 6.72998 11.765L3.22998 8.496C3.04998 8.328 3.04998 8.057 3.22998 7.89L4.10999 7.08501C4.28999 6.91901 4.58001 6.92 4.76001 7.088L7.06995 9.241L12.52 4.233C12.7 4.066 12.99 4.067 13.17 4.235L14.04 5.047C14.22 5.215 14.22 5.486 14.04 5.653Z"/>
    </symbol>

    <symbol id="video" viewBox="0 0 20 14">
        <path d="M18.09 0.367996H17.6801C17.2501 0.367996 16.84 0.543004 16.54 0.854004L13.24 4.237V2.026C13.24 1.111 12.51 0.367996 11.62 0.367996H1.91003C1.01003 0.367996 0.290039 1.111 0.290039 2.026V11.974C0.290039 12.889 1.01003 13.632 1.91003 13.632H11.62C12.51 13.632 13.24 12.889 13.24 11.974V9.763L16.54 13.146C16.84 13.457 17.2501 13.632 17.6801 13.632H18.09C18.99 13.632 19.71 12.889 19.71 11.974V2.026C19.71 1.111 18.99 0.367996 18.09 0.367996Z"/>
    </symbol>

    <symbol id="tv" viewBox="0 0 22 18">
        <path d="M20.2599 0H1.73987C0.839868 0 0.109863 0.745993 0.109863 1.66499V12.767C0.109863 13.687 0.839868 14.433 1.73987 14.433H10.0798V15.543H4.63989C4.02989 15.543 3.54993 16.039 3.54993 16.653C3.54993 17.267 4.02989 17.763 4.63989 17.763H17.7098C18.3098 17.763 18.7999 17.267 18.7999 16.653C18.7999 16.039 18.3098 15.543 17.7098 15.543H12.2599V14.433H20.2599C21.1599 14.433 21.8899 13.687 21.8899 12.767V1.66499C21.8899 0.745993 21.1599 0 20.2599 0ZM19.7198 12.212H2.27991V2.22H19.7198V12.212Z"/>
    </symbol>

    <symbol id="hamburger" viewBox="0 0 21 19">
        <path d="M21 14.739V15.91C21 16.232 20.74 16.496 20.41 16.496H18.73V18.178C18.73 18.5 18.47 18.764 18.15 18.764H16.98C16.65 18.764 16.39 18.5 16.39 18.178V16.496H14.71C14.39 16.496 14.12 16.232 14.12 15.91V14.739C14.12 14.417 14.39 14.154 14.71 14.154H16.39V12.471C16.39 12.149 16.65 11.886 16.98 11.886H18.15C18.47 11.886 18.73 12.149 18.73 12.471V14.154H20.41C20.74 14.154 21 14.417 21 14.739ZM0.589966 2.44701H15.8C16.13 2.44701 16.39 2.18299 16.39 1.86099V0.690994C16.39 0.368994 16.13 0.104996 15.8 0.104996H0.589966C0.259966 0.104996 0 0.368994 0 0.690994V1.86099C0 2.18699 0.259966 2.44701 0.589966 2.44701ZM0.589966 7.13H15.8C16.13 7.13 16.39 6.86601 16.39 6.54401V5.37399C16.39 5.05199 16.13 4.78799 15.8 4.78799H0.589966C0.259966 4.78799 0 5.05199 0 5.37399V6.54401C0 6.87001 0.259966 7.13 0.589966 7.13ZM0 14.739V15.91C0 16.232 0.259966 16.496 0.589966 16.496H11.67V14.154H0.589966C0.259966 14.154 0 14.417 0 14.739ZM0 10.056V11.227C0 11.549 0.259966 11.813 0.589966 11.813H14.03V9.47099H0.589966C0.259966 9.47099 0 9.735 0 10.056Z"/>
    </symbol>
</svg>
